<svg width="900" height="600" viewBox="0 0 900 600" fill="none" xmlns="http://www.w3.org/2000/svg"><path fill="transparent" d="M0 0h900v600H0z"/><path d="M614.567 241.256c-11.318 7.252-24.772 1.899-44.063-10.92-14.506-9.644-27.844-18.234-38.692-34.738-7.594-11.547-11.859-23.963-13.954-34.93-2.273-11.882-6.572-26.352 3.04-33.321 13.205-9.571 55.472-1.014 81.363 35.69 28.439 40.325 23.372 71.133 12.306 78.219z" fill="url(#a)"/><path d="M733.711 277.014c-16.509 8.189-38.42-2.341-38.42-2.341s4.869-23.802 21.387-31.98c16.509-8.189 38.411 2.329 38.411 2.329s-4.87 23.803-21.378 31.992z" fill="url(#b)"/><path d="M212.064 210.428c23.622 14.158 57.512 1.07 57.512 1.07s-4.431-36.036-28.068-50.177c-23.621-14.158-57.497-1.086-57.497-1.086s4.432 36.036 28.053 50.193z" fill="url(#c)"/><circle cx="659.283" cy="242.412" r="15.007" transform="rotate(180 659.283 242.412)" fill="#666AF6"/><circle cx="242.913" cy="269.524" r="12.354" transform="rotate(180 242.913 269.524)" fill="#666AF6"/><circle r="14.069" transform="matrix(-1 0 0 1 333.67 477.388)" fill="#666AF6"/><circle r="6.565" transform="matrix(-1 0 0 1 737.112 343.184)" fill="#666AF6"/><circle r="8.441" transform="matrix(-1 0 0 1 570.97 475.632)" fill="#E1E4E5"/><circle r="12.193" transform="matrix(-1 0 0 1 155.702 451.357)" fill="#E1E4E5"/><circle r="9.28" transform="matrix(-1 0 0 1 701.101 487.007)" fill="#E1E4E5"/><circle r="10.317" transform="matrix(-1 0 0 1 700.079 151.198)" fill="#E1E4E5"/><circle r="9.265" transform="scale(1 -1) rotate(-75 -116.944 -244.35)" fill="#E1E4E5"/><circle r="3.856" transform="matrix(-1 0 0 1 342.369 110.3)" fill="#E1E4E5"/><ellipse rx="9.481" ry="7.585" transform="matrix(-1 0 0 1 725.306 403.013)" fill="#E1E4E5"/><circle r="6.707" transform="scale(1 -1) rotate(-75 193.25 -395.152)" fill="#E1E4E5"/><path fill-rule="evenodd" clip-rule="evenodd" d="M288.677 236.48c-64.858 8.871-114.985 63.993-114.985 131.396 0 73.557 59.54 133.208 132.961 133.208h292.515c58.742 0 106.369-47.715 106.369-106.567 0-58.851-47.627-106.566-106.369-106.566 0-88.29-71.427-159.849-159.553-159.849-70.124 0-129.531 45.37-150.938 108.378z" fill="#666AF6"/><path fill="#fff" d="M362.141 292.557h153.664v133.794H362.141z"/><path fill-rule="evenodd" clip-rule="evenodd" d="M439.635 302.776c-19.176 0-36.258.757-50.214 1.72-13.238.912-23.417 11.866-24.367 26.122-.676 10.141-1.147 20.827-1.147 30.823 0 9.996.471 20.681 1.147 30.822.95 14.256 11.129 25.21 24.367 26.123a733.905 733.905 0 0 0 50.214 1.719c19.177 0 36.259-.757 50.215-1.719 13.238-.913 23.417-11.867 24.367-26.123.676-10.141 1.146-20.826 1.146-30.822 0-9.996-.47-20.682-1.146-30.823-.95-14.256-11.129-25.21-24.367-26.122a733.206 733.206 0 0 0-50.215-1.72zm-51.587-21.699c-23.992 1.654-42.841 21.844-44.575 47.85-.699 10.496-1.202 21.778-1.202 32.514 0 10.736.503 22.018 1.202 32.514 1.734 26.005 20.583 46.196 44.575 47.85a753.898 753.898 0 0 0 51.587 1.766c19.695 0 37.239-.777 51.587-1.766 23.993-1.654 42.842-21.845 44.575-47.85.7-10.496 1.203-21.778 1.203-32.514 0-10.736-.503-22.018-1.203-32.514-1.733-26.006-20.582-46.196-44.575-47.85a753.833 753.833 0 0 0-103.174 0z" fill="#fff"/><path fill-rule="evenodd" clip-rule="evenodd" d="M385.281 271.235c0-29.925 24.259-54.185 54.185-54.185 29.926 0 54.186 24.26 54.186 54.185v43.349c0 5.985-4.852 10.837-10.837 10.837-5.985 0-10.837-4.852-10.837-10.837v-43.349c0-17.955-14.556-32.511-32.512-32.511-17.955 0-32.511 14.556-32.511 32.511v43.349c0 5.985-4.852 10.837-10.837 10.837-5.986 0-10.837-4.852-10.837-10.837v-43.349z" fill="#fff"/><path fill-rule="evenodd" clip-rule="evenodd" d="M450.303 374.998c6.479-3.747 10.838-10.752 10.838-18.774 0-11.971-9.704-21.675-21.675-21.675-11.97 0-21.674 9.704-21.674 21.675 0 8.022 4.359 15.027 10.837 18.774v13.737c0 5.985 4.852 10.837 10.837 10.837 5.985 0 10.837-4.852 10.837-10.837v-13.737z" fill="#666AF6"/><defs><linearGradient id="a" x1="539.736" y1="287.468" x2="611.959" y2="27.715" gradientUnits="userSpaceOnUse"><stop stop-color="#fff"/><stop offset="1" stop-color="#EEE"/></linearGradient><linearGradient id="b" x1="670.316" y1="302.558" x2="806.479" y2="194.852" gradientUnits="userSpaceOnUse"><stop stop-color="#fff"/><stop offset="1" stop-color="#EEE"/></linearGradient><linearGradient id="c" x1="303.474" y1="256" x2="113.405" y2="79.401" gradientUnits="userSpaceOnUse"><stop stop-color="#fff"/><stop offset="1" stop-color="#EEE"/></linearGradient></defs></svg>